<?xml version="1.0" encoding="utf-8"?>
<!-- Generator: Adobe Illustrator 25.4.1, SVG Export Plug-In . SVG Version: 6.00 Build 0)  -->
<svg version="1.1" id="Warstwa_1" xmlns="http://www.w3.org/2000/svg" xmlns:xlink="http://www.w3.org/1999/xlink" x="0px" y="0px"
	 viewBox="0 0 517.6 435.4" style="enable-background:new 0 0 517.6 435.4;" xml:space="preserve">
<style type="text/css">
	.st0{fill:#99A1FF;}
	.st1{fill:#66FFD0;}
	.st2{clip-path:url(#SVGID_00000108309892353875919620000007870444700515990949_);}
	.st3{fill:none;stroke:#FFFFFF;stroke-width:2;stroke-miterlimit:10.01;}
	.st4{fill:none;stroke:#FFFFFF;stroke-width:1.9901;stroke-miterlimit:9.9603;}
	.st5{fill:#F3F3F3;}
	.st6{fill:#FF601A;}
	.st7{fill:none;stroke:#000000;stroke-width:2;stroke-miterlimit:10;}
	.st8{fill:none;stroke:#000000;stroke-width:2;stroke-linejoin:round;}
</style>
<g>
	
		<rect id="Rectangle_665_00000141432567505239747170000017003950216269075091_" x="1.4" y="36.4" transform="matrix(0.1049 -0.9945 0.9945 0.1049 -36.3928 395.0045)" class="st0" width="399.6" height="362.5"/>
	<path id="Path_838-18" class="st1" d="M328.4,67.3L328.4,67.3L164.7,90.2l43.4,311l257.7-36l-30.3-216.9L328.4,67.3z"/>
	<g>
		<defs>
			<polygon id="SVGID_1_" points="328.4,67.3 328.4,67.3 164.7,90.2 208.1,401.2 465.9,365.2 435.6,148.3 			"/>
		</defs>
		<clipPath id="SVGID_00000122680500938991325950000000501357952952190649_">
			<use xlink:href="#SVGID_1_"  style="overflow:visible;"/>
		</clipPath>
		<g style="clip-path:url(#SVGID_00000122680500938991325950000000501357952952190649_);">
			<line id="Line_385-4" class="st3" x1="22.5" y1="140.6" x2="566.1" y2="197.9"/>
			<line id="Line_386-4" class="st3" x1="29.2" y1="77.3" x2="572.7" y2="134.7"/>
			<line id="Line_387-4" class="st3" x1="15.8" y1="203.9" x2="559.4" y2="261.2"/>
			<line id="Line_388-4" class="st3" x1="9.1" y1="267.2" x2="552.7" y2="324.5"/>
			<line id="Line_389-4" class="st3" x1="2.4" y1="330.5" x2="546" y2="387.8"/>
			<line id="Line_390-4" class="st3" x1="96.2" y1="20.4" x2="56.2" y2="400.1"/>
			<line id="Line_391-4" class="st3" x1="156.6" y1="26.7" x2="116.6" y2="406.5"/>
			<line id="Line_392-4" class="st3" x1="217" y1="33.1" x2="177" y2="412.9"/>
			<line id="Line_393-4" class="st3" x1="277.4" y1="39.5" x2="237.3" y2="419.2"/>
			<line id="Line_394-4" class="st3" x1="398.2" y1="52.2" x2="358.2" y2="432"/>
			<line id="Line_395-4" class="st3" x1="337.8" y1="45.9" x2="297.8" y2="425.6"/>
			<line id="Line_396-4" class="st3" x1="458.6" y1="58.6" x2="418.5" y2="438.4"/>
			<line id="Line_397-4" class="st3" x1="519" y1="65" x2="479" y2="444.7"/>
			
				<rect id="Rectangle_599-4" x="95.1" y="-39.3" transform="matrix(0.1005 -0.9949 0.9949 0.1005 24.9578 492.9817)" class="st4" width="380" height="543.9"/>
		</g>
	</g>
	<path id="Path_870-4" class="st5" d="M328.4,67.3l13.1,94.1l94.1-13.1L328.4,67.3z"/>
	
		<rect id="Rectangle_649_00000113322636213187202580000009278366089555158673_" x="468.3" y="92.3" transform="matrix(0.3907 -0.9205 0.9205 0.3907 196.0536 507.4032)" width="26.1" height="26.7"/>
	
		<rect id="Rectangle_666_00000083773227652326836980000014077887183997157306_" x="143.8" y="333.4" transform="matrix(0.9272 -0.3746 0.3746 0.9272 -113.7687 93.5144)" width="79.8" height="11.9"/>
	<path id="Path_892_00000066478663942007997110000005602645361238887320_" class="st6" d="M461,193l-10.4,40l41-4.7l-31.8,26.2
		l36,20.3l-41.2,2.5l17.2,37.6l-34.8-22.2l-8.2,40.5l-15.1-38.4l-30.4,28l10.4-40l-41,4.7l31.9-26.2l-36-20.3l41.2-2.5l-17.2-37.5
		l34.8,22.2l8.2-40.5l15.1,38.4L461,193z"/>
	<path id="Path_65-2" class="st7" d="M112.2,179.1c0,0,12.4,11.4,21.6,16.3c75.9,41,134.6-19.7,116.8-51s-65.9-13.4-52.8,24.4
		c13.2,37.8,60,75.7,108.7,85.9"/>
	<path id="Path_66-2" class="st8" d="M255.7,260c19.2-5.4,44.1-5.5,51.6-5c-11.9-4.8-28.4-20.4-34.1-40.1"/>
</g>
</svg>
