<?xml version="1.0" encoding="utf-8"?>
<!-- Generator: Adobe Illustrator 25.4.1, SVG Export Plug-In . SVG Version: 6.00 Build 0)  -->
<svg version="1.1" id="Warstwa_1" xmlns="http://www.w3.org/2000/svg" xmlns:xlink="http://www.w3.org/1999/xlink" x="0px" y="0px"
	 viewBox="0 0 549.4 432.9" style="enable-background:new 0 0 549.4 432.9;" xml:space="preserve">
<style type="text/css">
	.st0{fill:#FF881D;}
	.st1{clip-path:url(#SVGID_00000152222999315183723030000010927895609648894089_);}
	.st2{fill:none;stroke:#FFFFFF;stroke-width:2;stroke-miterlimit:10;}
	.st3{fill:#99A1FF;}
	.st4{fill:none;stroke:#000000;stroke-width:2;stroke-linejoin:round;}
	.st5{fill:#F3F3F3;}
</style>
<g>
	
		<rect x="145.1" y="24.7" transform="matrix(8.715574e-02 -0.9962 0.9962 8.715574e-02 51.5774 537.5893)" class="st0" width="348.1" height="431.9"/>
	<g>
		<defs>
			
				<rect id="SVGID_1_" x="145.1" y="24.7" transform="matrix(8.715574e-02 -0.9962 0.9962 8.715574e-02 51.5774 537.5893)" width="348.1" height="431.9"/>
		</defs>
		<clipPath id="SVGID_00000029757208397770257650000017415878403935525268_">
			<use xlink:href="#SVGID_1_"  style="overflow:visible;"/>
		</clipPath>
		<g style="clip-path:url(#SVGID_00000029757208397770257650000017415878403935525268_);">
			
				<rect id="Rectangle_668_00000014613386560465883210000011802395036436542087_" x="259.7" y="236.5" transform="matrix(0.2079 -0.9781 0.9781 0.2079 -39.6621 697.2838)" width="302" height="273.3"/>
			<g id="Group_1107_00000140001601522626285220000011804251454307328440_">
				<g id="Group_498_00000024723029428140059720000016607949235292582841_">
					<path id="Path_754_00000003104113480588169560000001049972121261170859_" class="st2" d="M350.9,424.8l-10.7-43
						c-3.7-14.8-1.9-30.4,5.1-43.9l18.2-35.3"/>
					<path id="Path_755_00000096762345116016015310000007973577374762010282_" class="st2" d="M341.4,386.7l-11.9-47.9
						c-3.7-14.8-1.9-30.4,5.1-43.9l52.3-92"/>
					<path id="Path_756_00000008863110112406983950000006740167632368820119_" class="st2" d="M329.8,340.3l-11.9-47.9
						c-3.7-14.8-1.9-30.4,5.1-43.9l52.3-92"/>
				</g>
				<circle id="Ellipse_115_00000029026889665319345000000013396977821696565652_" class="st2" cx="352.1" cy="429.6" r="4.9"/>
				<circle id="Ellipse_116_00000096028554115382036160000010971504182847198112_" class="st2" cx="377.9" cy="151.8" r="4.9"/>
				<circle id="Ellipse_117_00000029739114468564445330000009868050136026535358_" class="st2" cx="389.6" cy="199" r="4.9"/>
				<circle id="Ellipse_118_00000034075985044479735160000008796565100630952619_" class="st2" cx="365.8" cy="298" r="4.9"/>
			</g>
		</g>
	</g>
	<path id="Path_882-2" class="st3" d="M244.3,161.1l-9.2,40.2l33.5-24L374.7,18.2L350.4,2L244.3,161.1z"/>
	<line id="Line_424-2" class="st4" x1="273.6" y1="180.6" x2="239.4" y2="157.8"/>
	
		<rect id="Rectangle_625_00000088112761005548967670000001989147685044249787_" x="31.5" y="108.3" transform="matrix(0.9563 -0.2924 0.2924 0.9563 -61.7357 46.4292)" class="st5" width="186" height="243"/>
	
		<line id="Line_434_00000089551474835441894410000007607987175561788049_" class="st4" x1="38.1" y1="162.7" x2="157.4" y2="125.5"/>
	
		<line id="Line_435_00000122691065216862958990000002974455447586162817_" class="st4" x1="45.8" y1="187.4" x2="165.1" y2="150.2"/>
	<line id="Line_436_00000114054439580284816750000009132475104774663580_" class="st4" x1="53.4" y1="212" x2="172.7" y2="174.8"/>
	<path id="Path_884-2" class="st4" d="M238.3,212.2c46.7,86.1-95.3,5.8-74.9-2.9c20.9-9,48.9,73.1,24.4,75.6s-89.8-56.8-75.8-64.8
		c25.2-14.4,70.8,106.8,22.5,101.2"/>
	<path id="Path_893_00000126313685727724058500000005014949889883594169_" d="M98.4,261l4.8,15.2l12.5-10l-5.1,15.1l16-0.7l-13,9.3
		l13.3,8.8l-16-0.2l5.6,15l-12.9-9.5l-4.2,15.4l-4.8-15.2l-12.5,10l5.1-15.1l-16,0.7l13-9.3L71,281.7l16,0.2l-5.6-15l12.8,9.5
		L98.4,261z"/>
	
		<rect id="Rectangle_648_00000044147476675693611040000003186804692340915883_" x="227.5" y="23.3" transform="matrix(0.866 -0.5 0.5 0.866 6.9085 122.6219)" width="9.6" height="50.2"/>
</g>
</svg>
